# xmcd
# 
# Track frame offsets:
#     150
#     25742
#     48341
#     59253
#     84916
#     108702
#     130111
#     157158
#     185248
#     204382
#     224605
# 
# Disc length: 3633
# 
# Revision: 6
# Processed by: cddbd v1.5.2PL0 Copyright (c) Steve Scherf et al.
# Submitted via: fre:ac v1.0.27
# 
DISCID=9f0e2f0b
DTITLE=Christian Scott - Christian aTunde Adjua
DYEAR=2012
DGENRE=Concord Jazz
TTITLE0=Fatima Aisha Rokero 400
TTITLE1=New New Orleans (King Adjuah Stomp)
TTITLE2=Kuro Shinobi (Interlude)
TTITLE3=Who They Wish I Was
TTITLE4=Pyrrhic victory of aTunde Adjuah
TTITLE5=Spy Boy - Flag Boy
TTITLE6=Vs. The Kleptocratic Union (Ms. McDowell's Crime)
TTITLE7=Kiel
TTITLE8=Of Fire (Les Filles de la Nouvelle Orleans)
TTITLE9=Dred Scott
TTITLE10=Danziger
EXTD=YEAR: 2012
EXTT0=
EXTT1=
EXTT2=
EXTT3=
EXTT4=
EXTT5=
EXTT6=
EXTT7=
EXTT8=
EXTT9=
EXTT10=
PLAYORDER=
